<svg version="1.2" xmlns="http://www.w3.org/2000/svg" viewBox="0 0 200 150" width="200" height="150">
	<title>새 프로젝트</title>
	<style>
		tspan { white-space:pre } 
		.s0 { fill: #fbffe3 } 
		.s1 { fill: #ff9cc2 } 
		.s2 { fill: #dadada } 
		.s3 { fill: #687bb8 } 
	</style>
	<g id="&lt;Group&gt;">
		<g id="&lt;Group&gt;">
			<path id="&lt;Path&gt;" class="s0" d="m142.2 121.3h-96.7q0-0.6 0-1.3c0.5-13.7 8.5-25.7 20.5-33.1 7.9-4.8 17.5-7.6 27.8-7.6 26.7 0 48.4 18.8 48.4 42z"/>
			<path id="&lt;Path&gt;" class="s0" d="m68.3 18.7c0-3.8-3.1-6.8-6.8-6.8-3.8 0-6.8 3-6.8 6.8v49.9c0 3.7 3 6.7 6.8 6.7 3.7 0 6.8-3 6.8-6.7z"/>
			<path id="&lt;Path&gt;" class="s1" d="m61.5 70.3c-1 0-1.8-0.8-1.8-1.7v-49.9c0-1 0.8-1.8 1.8-1.8 1 0 1.8 0.8 1.8 1.8v49.9c0 0.9-0.8 1.7-1.8 1.7z"/>
			<path id="&lt;Path&gt;" class="s0" d="m87.8 18.7c0-3.8-3-6.8-6.8-6.8-3.7 0-6.8 3-6.8 6.8v49.9c0 3.7 3.1 6.7 6.8 6.7 3.8 0 6.8-3 6.8-6.7z"/>
			<path id="&lt;Path&gt;" class="s1" d="m81 70.3c-1 0-1.8-0.8-1.8-1.7v-49.9c0-1 0.8-1.8 1.8-1.8 1 0 1.8 0.8 1.8 1.8v49.9c0 0.9-0.8 1.7-1.8 1.7z"/>
			<path id="&lt;Path&gt;" class="s0" d="m32.8 124.3c0-2.4 1.9-4.3 4.2-4.3h25.1c2.3 0 4.2 1.9 4.2 4.3 0 2.3-1.9 4.2-4.2 4.2h-25.1c-2.3 0-4.2-1.9-4.2-4.2z"/>
			<path id="&lt;Path&gt;" class="s0" d="m152.6 118.1c0 5.7-4.7 10.4-10.4 10.4-5.8 0-10.4-4.7-10.4-10.4 0-5.8 4.6-10.4 10.4-10.4 5.7 0 10.4 4.6 10.4 10.4z"/>
			<path id="&lt;Path&gt;" class="s0" d="m99.1 120h-56.2v-33.1h56.2z"/>
			<g id="&lt;Group&gt;">
				<path id="&lt;Path&gt;" class="s2" d="m117.9 106.4c-13.6 0-24.7 9.6-24.7 21.5h40.8c0-11.9-2.5-21.5-16.1-21.5z"/>
				<path id="&lt;Path&gt;" class="s2" d="m102 121.3h-32.1q0.6-0.8 1.4-1.3c0.6-0.4 1.3-0.6 2.2-0.6h25q0.3 0 0.6 0.1c1.2 0.1 2.3 0.8 2.9 1.8z"/>
			</g>
			<g id="&lt;Group&gt;">
				<path id="&lt;Path&gt;" class="s0" d="m118.5 107c-13.6 0-24.7 9.6-24.7 21.5h49.4c0-11.9-11.1-21.5-24.7-21.5z"/>
				<path id="&lt;Path&gt;" class="s0" d="m69.8 124.3c0-2.4 1.9-4.3 4.3-4.3h25c2.4 0 4.2 1.9 4.2 4.3 0 2.3-1.8 4.2-4.2 4.2h-25c-2.4 0-4.3-1.9-4.3-4.2z"/>
			</g>
			<path id="&lt;Path&gt;" class="s0" d="m71.3 60.5c-15.7 0-28.4 12.2-28.4 27.2h56.7c0-15-12.7-27.2-28.3-27.2z"/>
			<path id="&lt;Path&gt;" class="s3" d="m81 75.9c0 1-0.8 1.7-1.7 1.7-0.9 0-1.7-0.7-1.7-1.7 0-0.9 0.8-1.7 1.7-1.7 0.9 0 1.7 0.8 1.7 1.7z"/>
			<path id="&lt;Path&gt;" class="s3" d="m72.8 81c0 0.9-0.8 1.7-1.7 1.7-1 0-1.8-0.8-1.8-1.7 0-1 0.8-1.8 1.8-1.8 0.9 0 1.7 0.8 1.7 1.8z"/>
			<path id="&lt;Path&gt;" class="s3" d="m63.8 75.9c0 1-0.7 1.7-1.7 1.7-0.9 0-1.7-0.7-1.7-1.7 0-0.9 0.8-1.7 1.7-1.7 1 0 1.7 0.8 1.7 1.7z"/>
		</g>
	</g>
</svg>